fwd_states
version=1
nRows=4
nColumns=185
inDegrees=yes

# SIMM Motion File Header:
name fwd_states
datacolumns 185
datarows 4
otherdata 1
range 0.07143827 0.07185097
endheader
time	platform_rx	platform_ry	platform_rz	platform_ty	pelvis_tilt	pelvis_list	pelvis_rotation	pelvis_tx	pelvis_ty	pelvis_tz	hip_flexion_r	hip_adduction_r	hip_rotation_r	knee_angle_r	patella_r_constrained_knee_angle	ankle_angle_r	subtalar_angle_r	mtp_angle_r	hip_flexion_l	hip_adduction_l	hip_rotation_l	knee_angle_l	patella_l_constrained_knee_angle	ankle_angle_l	subtalar_angle_l	mtp_angle_l	lumbar_extension	lumbar_bending	lumbar_rotation	arm_flex_r	arm_add_r	arm_rot_r	elbow_flex_r	pro_sup_r	wrist_flex_r	wrist_dev_r	arm_flex_l	arm_add_l	arm_rot_l	elbow_flex_l	pro_sup_l	wrist_flex_l	wrist_dev_l	platform_rx_u	platform_ry_u	platform_rz_u	platform_ty_u	pelvis_tilt_u	pelvis_list_u	pelvis_rotation_u	pelvis_tx_u	pelvis_ty_u	pelvis_tz_u	hip_flexion_r_u	hip_adduction_r_u	hip_rotation_r_u	knee_angle_r_u	patella_r_constrained_knee_angle_u	ankle_angle_r_u	subtalar_angle_r_u	mtp_angle_r_u	hip_flexion_l_u	hip_adduction_l_u	hip_rotation_l_u	knee_angle_l_u	patella_l_constrained_knee_angle_u	ankle_angle_l_u	subtalar_angle_l_u	mtp_angle_l_u	lumbar_extension_u	lumbar_bending_u	lumbar_rotation_u	arm_flex_r_u	arm_add_r_u	arm_rot_r_u	elbow_flex_r_u	pro_sup_r_u	wrist_flex_r_u	wrist_dev_r_u	arm_flex_l_u	arm_add_l_u	arm_rot_l_u	elbow_flex_l_u	pro_sup_l_u	wrist_flex_l_u	wrist_dev_l_u	glut_med1_r.activation	glut_med1_r.fiber_length	glut_med2_r.activation	glut_med2_r.fiber_length	glut_med3_r.activation	glut_med3_r.fiber_length	glut_min1_r.activation	glut_min1_r.fiber_length	glut_min2_r.activation	glut_min2_r.fiber_length	glut_min3_r.activation	glut_min3_r.fiber_length	semimem_r.activation	semimem_r.fiber_length	semiten_r.activation	semiten_r.fiber_length	bifemlh_r.activation	bifemlh_r.fiber_length	bifemsh_r.activation	bifemsh_r.fiber_length	sar_r.activation	sar_r.fiber_length	add_long_r.activation	add_long_r.fiber_length	add_brev_r.activation	add_brev_r.fiber_length	add_mag1_r.activation	add_mag1_r.fiber_length	add_mag2_r.activation	add_mag2_r.fiber_length	add_mag3_r.activation	add_mag3_r.fiber_length	tfl_r.activation	tfl_r.fiber_length	pect_r.activation	pect_r.fiber_length	grac_r.activation	grac_r.fiber_length	glut_max1_r.activation	glut_max1_r.fiber_length	glut_max2_r.activation	glut_max2_r.fiber_length	glut_max3_r.activation	glut_max3_r.fiber_length	iliacus_r.activation	iliacus_r.fiber_length	psoas_r.activation	psoas_r.fiber_length	quad_fem_r.activation	quad_fem_r.fiber_length	gem_r.activation	gem_r.fiber_length	peri_r.activation	peri_r.fiber_length	rect_fem_r.activation	rect_fem_r.fiber_length	vas_med_r.activation	vas_med_r.fiber_length	vas_int_r.activation	vas_int_r.fiber_length	vas_lat_r.activation	vas_lat_r.fiber_length	med_gas_r.activation	med_gas_r.fiber_length	lat_gas_r.activation	lat_gas_r.fiber_length	soleus_r.activation	soleus_r.fiber_length	tib_post_r.activation	tib_post_r.fiber_length	flex_dig_r.activation	flex_dig_r.fiber_length	flex_hal_r.activation	flex_hal_r.fiber_length	tib_ant_r.activation	tib_ant_r.fiber_length	per_brev_r.activation	per_brev_r.fiber_length	per_long_r.activation	per_long_r.fiber_length	per_tert_r.activation	per_tert_r.fiber_length	ext_dig_r.activation	ext_dig_r.fiber_length	ext_hal_r.activation	ext_hal_r.fiber_length	ercspn_r.activation	ercspn_r.fiber_length	ercspn_l.activation	ercspn_l.fiber_length	intobl_r.activation	intobl_r.fiber_length	intobl_l.activation	intobl_l.fiber_length	extobl_r.activation	extobl_r.fiber_length	extobl_l.activation	extobl_l.fiber_length
      0.07143827	      0.00000000	     -0.00000000	     -0.00000000	     -0.00000000	    -13.20274888	      1.52653895	     12.13662431	     -0.42765318	      0.93191025	      0.35733128	     45.97929015	     -0.36647380	     -3.66804499	    -48.73389945	    -48.73389945	     13.99043791	    -10.91498923	      0.00001318	     52.13915936	      0.00000000	     -9.99811353	   -101.98648811	   -101.98648811	      6.49999992	     -0.00000000	     -0.00000000	    -15.90812135	     -1.74863966	     -5.35338163	     -0.00000000	     -8.91003344	      0.00000000	     72.06682857	     46.23690339	     -0.00000000	      4.87402477	     -0.00000000	     -8.91003344	     -0.00000000	     72.06682857	     46.23690339	     -0.00000000	      4.87402477	      0.00000000	     -0.00000000	     -0.00000000	     -0.00000000	     38.89478713	   -142.06097512	   -110.95711800	     -0.13138212	     -1.55294314	      0.43764897	    244.84325672	    205.59723481	    -43.95083519	   -423.81658981	   -423.81658981	    140.18073108	     -4.45048147	     -0.00000000	     -0.00000000	      0.00000000	      0.00000000	     -0.00000000	      0.00000000	      0.00000000	     -0.00000000	     -0.00000000	   -167.34342300	    146.80397887	    166.24278961	      0.00000000	     -0.00000000	      0.00000000	     -0.00000000	      0.00000000	     -0.00000000	      0.00000000	     -0.00000000	      0.00000000	     -0.00000000	     -0.00000000	      0.00000000	      0.00000000	      0.00000000	      0.17958931	      0.05200076	      0.26021886	      0.09517227	      0.44097654	      0.07915352	      0.10223863	      0.07082208	      0.19099367	      0.06210122	      0.39069332	      0.04284915	      0.17318847	      0.07108717	      0.46064444	      0.23618468	      0.33161192	      0.11662481	      0.21757730	      0.16082142	      0.02611244	      0.44536775	      0.02490047	      0.09491838	      0.02490047	      0.12297077	      0.02540302	      0.07568662	      0.05315668	      0.10673572	      0.14004817	      0.14177149	      0.03596017	      0.08615950	      0.02490047	      0.05904170	      0.02490047	      0.33562213	      0.21975190	      0.10785822	      0.22925740	      0.12242945	      0.22115464	      0.14850130	      0.02490047	      0.07875706	      0.02490047	      0.07184078	      0.30263974	      0.05508224	      0.46325500	      0.02540911	      0.65652736	      0.02602637	      0.23923908	      0.10955066	      0.34001772	      0.08973395	      0.39403214	      0.09154678	      0.35385105	      0.08530574	      0.37455878	      0.05395943	      0.39449108	      0.05870183	      0.56552697	      0.05407410	      0.02490047	      0.04081475	      0.02490047	      0.03804346	      0.02490047	      0.04676367	      0.19271126	      0.08050522	      0.02490047	      0.04801017	      0.02490047	      0.04929639	      0.02490047	      0.07625398	      0.02490047	      0.09590663	      0.02490047	      0.10430899	      0.13021301	      0.13377620	      0.22455811	      0.12929321	      0.02490047	      0.08571457	      0.04781808	      0.08540851	      0.11887933	      0.12147064	      0.05506135	      0.10801272
      0.07156177	      0.00000000	     -0.00000000	     -0.00000000	     -0.00000000	    -13.19794625	      1.50899645	     12.12291781	     -0.42766943	      0.93171854	      0.35738535	     46.00950170	     -0.34108219	     -3.67348301	    -48.78618488	    -48.78618488	     14.00772059	    -10.91554487	      0.00001318	     52.13915936	      0.00000000	     -9.99811353	   -101.98648811	   -101.98648811	      6.49999992	     -0.00000000	     -0.00000000	    -15.92879914	     -1.73052321	     -5.33284290	     -0.00000000	     -8.91003344	      0.00000000	     72.06682857	     46.23690339	     -0.00000000	      4.87402477	     -0.00000000	     -8.91003344	     -0.00000000	     72.06682857	     46.23690339	     -0.00000000	      4.87402477	      0.00000000	     -0.00000000	     -0.00000000	     -0.00000000	     38.88202412	   -142.03361690	   -111.01537894	     -0.13179184	     -1.55175534	      0.43798657	    244.42316190	    205.61153504	    -44.11529702	   -422.92881036	   -422.92881036	    139.70675269	     -4.54715112	     -0.00000000	     -0.00000000	      0.00000000	      0.00000000	     -0.00000000	      0.00000000	      0.00000000	     -0.00000000	     -0.00000000	   -167.52619811	    146.58538407	    166.37516976	      0.00000000	     -0.00000000	      0.00000000	     -0.00000000	      0.00000000	     -0.00000000	      0.00000000	     -0.00000000	      0.00000000	     -0.00000000	     -0.00000000	      0.00000000	      0.00000000	      0.00000000	      0.18003117	      0.05201489	      0.26013554	      0.09519703	      0.44078242	      0.07918205	      0.10241874	      0.07083196	      0.19113252	      0.06211582	      0.39067339	      0.04286822	      0.17301650	      0.07107221	      0.46055497	      0.23616267	      0.33155537	      0.11661916	      0.21742245	      0.16079119	      0.02608564	      0.44532795	      0.02487577	      0.09486873	      0.02487577	      0.12294592	      0.02537745	      0.07567607	      0.05308329	      0.10673776	      0.13997295	      0.14179070	      0.03591582	      0.08615036	      0.02487577	      0.05901397	      0.02487577	      0.33557996	      0.21960851	      0.10788816	      0.22906689	      0.12245939	      0.22089034	      0.14852352	      0.02487577	      0.07872319	      0.02487577	      0.07180719	      0.30194784	      0.05508694	      0.46244902	      0.02541679	      0.65629810	      0.02604641	      0.23934307	      0.10956963	      0.34024767	      0.08976898	      0.39429900	      0.09158312	      0.35409490	      0.08534088	      0.37454276	      0.05395470	      0.39448426	      0.05869805	      0.56588377	      0.05408435	      0.02487577	      0.04081754	      0.02487577	      0.03804732	      0.02487577	      0.04676914	      0.19251856	      0.08045393	      0.02487577	      0.04800938	      0.02487577	      0.04929716	      0.02487577	      0.07624565	      0.02487577	      0.09587048	      0.02487577	      0.10426971	      0.13019196	      0.13377379	      0.22488008	      0.12932141	      0.02487577	      0.08568103	      0.04775139	      0.08540936	      0.11865161	      0.12141876	      0.05500729	      0.10801683
      0.07168527	      0.00000000	     -0.00000000	     -0.00000000	     -0.00000000	    -13.19314525	      1.49145739	     12.10920400	     -0.42768574	      0.93152698	      0.35743946	     46.03966157	     -0.31568873	     -3.67894110	    -48.83836090	    -48.83836090	     14.02494471	    -10.91611294	      0.00001318	     52.13915936	      0.00000000	     -9.99811353	   -101.98648811	   -101.98648811	      6.49999992	     -0.00000000	     -0.00000000	    -15.94949944	     -1.71243388	     -5.31228776	     -0.00000000	     -8.91003344	      0.00000000	     72.06682857	     46.23690339	     -0.00000000	      4.87402477	     -0.00000000	     -8.91003344	     -0.00000000	     72.06682857	     46.23690339	     -0.00000000	      4.87402477	      0.00000000	     -0.00000000	     -0.00000000	     -0.00000000	     38.86836370	   -142.00536770	   -111.07525545	     -0.13220143	     -1.55057030	      0.43832696	    244.00623346	    205.62713963	    -44.27599053	   -422.04477787	   -422.04477787	    139.23191041	     -4.65396682	     -0.00000000	     -0.00000000	      0.00000000	      0.00000000	     -0.00000000	      0.00000000	      0.00000000	     -0.00000000	     -0.00000000	   -167.70800503	    146.36490846	    166.50860559	      0.00000000	     -0.00000000	      0.00000000	     -0.00000000	      0.00000000	     -0.00000000	      0.00000000	     -0.00000000	      0.00000000	     -0.00000000	     -0.00000000	      0.00000000	      0.00000000	      0.00000000	      0.18046808	      0.05202904	      0.26005183	      0.09522177	      0.44058878	      0.07921054	      0.10259615	      0.07084184	      0.19126874	      0.06213042	      0.39065278	      0.04288729	      0.17284448	      0.07105727	      0.46046537	      0.23614069	      0.33149880	      0.11661351	      0.21726752	      0.16076103	      0.02605889	      0.44528824	      0.02485111	      0.09481909	      0.02485111	      0.12292107	      0.02535193	      0.07566549	      0.05300976	      0.10673977	      0.13989731	      0.14180986	      0.03587154	      0.08614126	      0.02485111	      0.05898625	      0.02485111	      0.33553783	      0.21946493	      0.10791806	      0.22887626	      0.12248929	      0.22062588	      0.14854567	      0.02485111	      0.07868933	      0.02485111	      0.07177360	      0.30125764	      0.05509162	      0.46164590	      0.02542445	      0.65606860	      0.02606644	      0.23944668	      0.10958854	      0.34047715	      0.08980392	      0.39456524	      0.09161938	      0.35433821	      0.08537594	      0.37452646	      0.05394998	      0.39447721	      0.05869426	      0.56623952	      0.05409457	      0.02485111	      0.04082032	      0.02485111	      0.03805116	      0.02485111	      0.04677460	      0.19232569	      0.08040265	      0.02485111	      0.04800861	      0.02485111	      0.04929795	      0.02485111	      0.07623741	      0.02485111	      0.09583433	      0.02485111	      0.10423043	      0.13017090	      0.13377139	      0.22520049	      0.12934960	      0.02485111	      0.08564749	      0.04768482	      0.08541019	      0.11842447	      0.12136700	      0.05495300	      0.10802090
      0.07185097	      0.00000000	     -0.00000000	     -0.00000000	     -0.00000000	    -13.18670611	      1.46792936	     12.09079124	     -0.42770769	      0.93127017	      0.35751213	     46.08004907	     -0.28161303	     -3.68629539	    -48.90819875	    -48.90819875	     14.04796366	    -10.91689618	      0.00001318	     52.13915936	      0.00000000	     -9.99811353	   -101.98648811	   -101.98648811	      6.49999992	     -0.00000000	     -0.00000000	    -15.97730993	     -1.68820491	     -5.28468119	     -0.00000000	     -8.91003344	      0.00000000	     72.06682857	     46.23690339	     -0.00000000	      4.87402477	     -0.00000000	     -8.91003344	     -0.00000000	     72.06682857	     46.23690339	     -0.00000000	      4.87402477	      0.00000000	     -0.00000000	     -0.00000000	     -0.00000000	     38.84863403	   -141.96608004	   -111.15810560	     -0.13275082	     -1.54898456	      0.43878804	    243.45177478	    205.65011149	    -44.48546966	   -420.86469092	   -420.86469092	    138.59621476	     -4.79598376	     -0.00000000	     -0.00000000	      0.00000000	      0.00000000	     -0.00000000	      0.00000000	      0.00000000	     -0.00000000	     -0.00000000	   -167.95043504	    146.06615296	    166.68927446	      0.00000000	     -0.00000000	      0.00000000	     -0.00000000	      0.00000000	     -0.00000000	      0.00000000	     -0.00000000	      0.00000000	     -0.00000000	     -0.00000000	      0.00000000	      0.00000000	      0.00000000	      0.18104655	      0.05204804	      0.25993892	      0.09525493	      0.44032972	      0.07924873	      0.10283003	      0.07085511	      0.19144752	      0.06215001	      0.39062408	      0.04291286	      0.17261358	      0.07103726	      0.46034493	      0.23611125	      0.33142290	      0.11660594	      0.21705949	      0.16072067	      0.02602307	      0.44523509	      0.02481810	      0.09475249	      0.02481810	      0.12288771	      0.02531775	      0.07565125	      0.05291091	      0.10674243	      0.13979514	      0.14183550	      0.03581226	      0.08612910	      0.02481810	      0.05894907	      0.02481810	      0.33548139	      0.21927197	      0.10795811	      0.22862029	      0.12252933	      0.22027079	      0.14857527	      0.02481810	      0.07864389	      0.02481810	      0.07172853	      0.30033422	      0.05509786	      0.46057281	      0.02543472	      0.65576033	      0.02609330	      0.23958514	      0.10961385	      0.34078432	      0.08985067	      0.39492151	      0.09166789	      0.35466386	      0.08542284	      0.37450417	      0.05394364	      0.39446739	      0.05868918	      0.56671522	      0.05410825	      0.02481810	      0.04082404	      0.02481810	      0.03805631	      0.02481810	      0.04678189	      0.19206664	      0.08033388	      0.02481810	      0.04800759	      0.02481810	      0.04929903	      0.02481810	      0.07622646	      0.02481810	      0.09578583	      0.02481810	      0.10417773	      0.13014264	      0.13376820	      0.22562802	      0.12938740	      0.02481810	      0.08560250	      0.04759572	      0.08541125	      0.11812063	      0.12129775	      0.05487980	      0.10802632
